<svg viewBox="0 0 32 32" xmlns="http://www.w3.org/2000/svg"><g id="credit_card-3" data-name="credit card"><path d="m26 7h-20a3 3 0 0 0 -3 3v12a3 3 0 0 0 3 3h20a3 3 0 0 0 3-3v-12a3 3 0 0 0 -3-3zm1 15a1 1 0 0 1 -1 1h-20a1 1 0 0 1 -1-1v-12a1 1 0 0 1 1-1h20a1 1 0 0 1 1 1z"/><path d="m19 11a5 5 0 0 0 -3 1 5 5 0 1 0 0 8 5 5 0 1 0 3-9zm-9 5a3 3 0 0 1 5.24-2 3.11 3.11 0 0 1 .66 1.25s0 .05 0 .08a3.12 3.12 0 0 1 .1.67 3.2 3.2 0 0 1 -.07.63s0 .05 0 .08a3.11 3.11 0 0 1 -.68 1.29 3 3 0 0 1 -5.25-2zm9 3a2.9 2.9 0 0 1 -1.67-.52l.11-.23c.08-.16.16-.33.23-.5a6.17 6.17 0 0 0 .19-.61 2.33 2.33 0 0 0 .05-.28 4.15 4.15 0 0 0 0-1.72 2.33 2.33 0 0 0 -.05-.28 6.17 6.17 0 0 0 -.19-.61c-.07-.17-.15-.34-.23-.5l-.11-.23a2.9 2.9 0 0 1 1.67-.52 3 3 0 0 1 0 6z"/></g></svg>